# xmcd
#
# Track frame offsets:
#	150
#	15457
#	33723
#	51843
#	66603
#	79534
#	94901
#	109438
#	124692
#	140114
#	160491
#	174598
#	190722
#	209504
#	223025
#	240747
#	257894
#	270684
#	280513
#	292486
#	307156
#
# Disc length: 4276 seconds
#
# Revision: 1
# Processed by: cddbd v1.4PL0 Copyright (c) Steve Scherf et al.
# Submitted via: audiograbber 1.81.03
#
DISCID=5510b215
DTITLE=Various Artist - Open Road II Unexplored Country [CD2]
DYEAR=1998
DGENRE=Country
TTITLE0=Stewart Peters - Heading Down The Hunter
TTITLE1=Tamika Kellehear - It Ain't You
TTITLE2=Rob Wilson - Speed Demon
TTITLE3=Keith Armitage - Hangin' On
TTITLE4=The Stan Hawkins Band - Chirpee
TTITLE5=The Spencer Band - That Was Then (This Is Now)
TTITLE6=Michael O'Rourke - Loving Heart
TTITLE7=Amanda Gilmour - I Just Had To Do It
TTITLE8=Jennifer Doughton - Thinking Of Me Tonight
TTITLE9=Fiddle Me Please - Out Of My Hands
TTITLE10=Williamson, Maddern and Haywood - After The Rain
TTITLE11=Strum - Cane Fire
TTITLE12=Fisk and Cristian - Same Heartache
TTITLE13=Crosby Sisters - Burning Desire
TTITLE14=Mark Tempany - Sweet Memories
TTITLE15=Elizabeth Lord - Give Me Wings
TTITLE16=The Feral Swing Katz - Alone In San Antone
TTITLE17=The Sparnetts - Why Can't It Be The Same
TTITLE18=White Liners - Volcano Girl
TTITLE19=Brian Dover - Spring Chicken
TTITLE20=Fiddlers Festival - Holiday For Strings
EXTD=
EXTT0=
EXTT1=
EXTT2=
EXTT3=
EXTT4=
EXTT5=
EXTT6=
EXTT7=
EXTT8=
EXTT9=
EXTT10=
EXTT11=
EXTT12=
EXTT13=
EXTT14=
EXTT15=
EXTT16=
EXTT17=
EXTT18=
EXTT19=
EXTT20=
PLAYORDER=
